<svg width="184.022583" height="40.000000" viewBox="0 0 184.023 40" fill="none" xmlns="http://www.w3.org/2000/svg" xmlns:xlink="http://www.w3.org/1999/xlink">
	<desc>
			Created with Pixso.
	</desc>
	<defs/>
	<path id="Subtract" d="M20 0C26.8551 0 32.9048 3.44885 36.5083 8.70618L22.5 22.7145L14.2678 14.4822C13.2915 13.5059 11.7085 13.5059 10.7322 14.4822L0.547485 24.667C0.189575 23.1697 0 21.6069 0 20C0 8.95435 8.95435 0 20 0ZM24.2678 28.0178L38.8854 13.4001C39.6074 15.4664 40 17.6874 40 20C40 31.0457 31.0457 40 20 40C12.495 40 5.95544 35.8662 2.53418 29.7513L12.5 19.7855L20.7322 28.0178C21.7085 28.9941 23.2915 28.9941 24.2678 28.0178Z" fill="#EF2A82" fill-opacity="1.000000" fill-rule="evenodd"/>
	<path id="ANALYTICS" d="M156.357 22.6639C156.306 23.7607 156.01 24.7312 155.469 25.5754Q155.285 25.8602 155.067 26.116Q154.323 26.9882 153.185 27.5237C152.211 27.9855 151.096 28.2164 149.841 28.2164C147.77 28.2164 146.139 27.5417 144.948 26.1924C143.758 24.8431 143.163 22.9381 143.163 20.4775L143.163 19.6982Q143.163 17.3821 143.964 15.6503Q144.552 14.3859 145.512 13.5431Q145.875 13.2244 146.291 12.9661Q146.539 12.8102 146.799 12.6798Q148.132 12.0135 149.797 12.0135C151.71 12.0135 153.247 12.5187 154.408 13.5288Q154.844 13.9053 155.186 14.3535Q156.21 15.6968 156.389 17.6851L152.601 17.6851C152.572 16.7255 152.33 16.0363 151.876 15.6178C151.421 15.1993 150.728 14.99 149.797 14.99C148.852 14.99 148.159 15.3436 147.719 16.0508C147.279 16.7579 147.048 17.8871 147.027 19.4385L147.027 20.5533C147.027 22.2346 147.236 23.436 147.654 24.1576C148.08 24.8792 148.809 25.24 149.841 25.24C150.714 25.24 151.381 25.0343 151.843 24.623C152.305 24.2117 152.55 23.5587 152.579 22.6639L156.357 22.6639ZM166.282 23.8113C166.282 23.2556 166.083 22.8226 165.686 22.5125C165.297 22.2021 164.608 21.881 163.619 21.5491C162.631 21.2172 161.822 20.8961 161.195 20.5858C159.153 19.5829 158.132 18.2046 158.132 16.4512Q158.132 15.6508 158.415 14.9675Q158.595 14.533 158.889 14.1458Q159.658 13.1392 161.054 12.5872C161.985 12.212 163.031 12.0244 164.193 12.0244C165.326 12.0244 166.339 12.2264 167.234 12.6305C168.136 13.0345 168.836 13.6118 169.334 14.3623C169.832 15.1055 170.081 15.9569 170.081 16.9166L166.292 16.9166C166.292 16.2744 166.094 15.7765 165.697 15.423C165.308 15.0695 164.777 14.8926 164.106 14.8926C163.428 14.8926 162.89 15.0442 162.494 15.3472C162.104 15.6431 161.909 16.0219 161.909 16.4836Q161.909 16.5754 161.924 16.6647Q162.007 17.1652 162.558 17.5876C162.991 17.9124 163.753 18.2516 164.842 18.6051C165.932 18.9514 166.827 19.3267 167.526 19.7307C169.229 20.712 170.081 22.0651 170.081 23.7896Q170.081 24.9688 169.574 25.859Q169.192 26.5298 168.522 27.0366C167.483 27.8231 166.058 28.2164 164.247 28.2164C162.97 28.2164 161.812 27.9891 160.773 27.5345C159.741 27.0728 158.961 26.4449 158.435 25.6512Q158.246 25.36 158.103 25.0479L158.103 25.0476Q157.655 24.0719 157.655 22.8912L161.465 22.8912C161.465 23.7355 161.682 24.3596 162.115 24.7637C162.555 25.1605 163.266 25.359 164.247 25.359C164.875 25.359 165.369 25.2255 165.73 24.9585C166.098 24.6843 166.282 24.3019 166.282 23.8113ZM62.8085 25.0559L57.6023 25.0559L56.6931 28L52.6343 28L58.4141 12.2408L61.9858 12.2408L67.809 28L63.7284 28L62.8085 25.0559ZM82.1285 28L78.3511 28L72.7661 18.1938L72.7661 28L68.967 28L68.967 12.2408L72.7661 12.2408L78.3402 22.047L78.3402 12.2408L82.1285 12.2408L82.1285 28ZM93.6772 25.0559L88.4711 25.0559L87.5619 28L83.5031 28L89.2828 12.2408L92.8546 12.2408L98.6777 28L94.5973 28L93.6772 25.0559ZM103.635 25.0776L110.248 25.0776L110.248 28L99.8358 28L99.8358 12.2408L103.635 12.2408L103.635 25.0776ZM114.588 19.0813L117.489 12.2408L121.591 12.2408L116.515 22.3392L116.515 28L112.662 28L112.662 22.3392L107.596 12.2408L111.677 12.2408L114.588 19.0813ZM135.305 15.1741L130.575 15.1741L130.575 28L126.776 28L126.776 15.1741L122.132 15.1741L122.132 12.2408L135.305 12.2408L135.305 15.1741ZM140.965 28L137.177 28L137.177 12.2408L140.965 12.2408L140.965 28ZM58.5115 22.1228L61.8993 22.1228L60.2 16.6569L58.5115 22.1228ZM89.3802 22.1228L92.7681 22.1228L91.0687 16.6569L89.3802 22.1228Z" fill="#FFFFFF" fill-opacity="1.000000" fill-rule="evenodd"/>
</svg>
